<?xml version="1.0" standalone="no"?>
<!DOCTYPE svg PUBLIC "-//W3C//DTD SVG 1.1//EN" "http://www.w3.org/Graphics/SVG/1.1/DTD/svg11.dtd" >
<!--
2013-9-30: Created.
-->
<svg>
<metadata>
Created by iconfont
</metadata>
<defs>

<font id="iconfont" horiz-adv-x="1024" >
  <font-face
    font-family="iconfont"
    font-weight="500"
    font-stretch="normal"
    units-per-em="1024"
    ascent="896"
    descent="-128"
  />
    <missing-glyph />
    
    <glyph glyph-name="bianji1" unicode="&#59216;" d="M512 778.868279c53.318346 0 105.040335-10.43363 153.694451-31.016411 47.009663-19.885909 89.248673-48.362474 125.512599-84.636632 36.281321-36.271088 64.756863-78.510098 84.642772-125.526925 20.582781-48.657186 31.016411-100.361779 31.016411-153.690358 0-53.318346-10.43363-105.033172-31.016411-153.690358-19.885909-47.006594-48.362474-89.248673-84.642772-125.516691-36.263925-36.277228-78.502935-64.753793-125.512599-84.636633-48.654117-20.585851-100.376105-31.019481-153.694451-31.01948-53.324486 0-105.030102 10.43363-153.687288 31.01948-47.02399 19.882839-89.248673 48.358381-125.526925 84.636633-36.277228 36.266995-64.750723 78.510098-84.636632 125.516691-20.582781 48.657186-31.016411 100.372012-31.016411 153.690358 0 53.328579 10.43363 105.033172 31.016411 153.690358 19.885909 47.02399 48.358381 89.248673 84.636632 125.526925 36.271088 36.274158 78.510098 64.750723 125.526925 84.636632 48.657186 20.582781 100.362802 31.016411 153.687288 31.016411m0 51.309596c-246.416226 0-446.176852-199.763696-446.176852-446.179922s199.759603-446.176852 446.176852-446.176852c246.419296 0 446.176852 199.759603 446.176852 446.176852S758.420319 830.177875 512 830.177875z m86.966701-260.415054c30.532387-30.555923 60.844763-60.892859 91.435478-91.517343-82.497922-81.846076-165.315116-164.021657-247.837598-245.898433-30.511921 30.518061-60.814064 60.817134-91.473341 91.479481 82.423221 81.767282 165.243485 163.949003 247.875461 245.936295z m109.97574-72.021314c-31.006178 31.022551-61.325717 61.362556-91.840708 91.899037 0.50756 0.552585 1.280156 1.441838 2.127454 2.281973 13.879102 13.893428 27.759227 27.792996 41.683354 41.658795 17.284665 17.232476 40.499389 17.219173 57.817824-0.030699 11.164271-11.123338 22.309098-22.278399 33.4396-33.435507 17.427928-17.472953 17.46272-40.687678 0.078794-58.084906-13.701047-13.731746-27.450189-27.42256-41.141002-41.175795-0.933255-0.928139-1.537006-2.191922-2.165316-3.112898z m-431.569156-339.892177c18.317181 48.921199 36.634362 97.849562 54.773487 146.297994 29.945009-29.91431 59.962673-59.911508 90.056062-89.980337-47.78226-18.914792-95.965655-37.97694-144.153144-57.052391a94.307899 94.307899 0 0 0-0.676405 0.734734z"  horiz-adv-x="1024" />

    
    <glyph glyph-name="jinpai" unicode="&#58900;" d="M491.4176-39.1168L393.216-87.04a46.9504 46.9504 0 0 0-62.1056 20.224l-51.2 96.4608a47.0016 47.0016 0 0 1-33.3824 24.2176l-107.52 18.8928a46.9504 46.9504 0 0 0-38.4 52.7872l15.36 108.1344a46.9504 46.9504 0 0 1-12.8 39.168L27.392 351.3344a46.9504 46.9504 0 0 0 0 65.28l75.9296 78.5408a46.8992 46.8992 0 0 1 12.6976 39.168L100.6592 642.56a46.9504 46.9504 0 0 0 38.4 52.7872l107.5712 18.8928a47.0016 47.0016 0 0 1 33.3824 24.2176l51.2 96.4608A46.8992 46.8992 0 0 0 393.2672 855.0912l98.1504-47.9744c12.9536-6.3488 28.16-6.3488 41.1648 0L630.784 855.04a46.9504 46.9504 0 0 0 62.1056-20.224l51.2-96.4608c6.8096-12.8 19.0976-21.76 33.3824-24.2176l107.52-18.8928a46.9504 46.9504 0 0 0 38.4-52.7872l-15.36-108.1344c-1.9968-14.336 2.7136-28.7744 12.8-39.168l75.8784-78.5408a46.9504 46.9504 0 0 0 0-65.28l-75.9296-78.5408a46.8992 46.8992 0 0 1-12.6976-39.168l15.3088-108.1344a46.9504 46.9504 0 0 0-38.4-52.7872l-107.52-18.8928a47.0016 47.0016 0 0 1-33.3824-24.2176l-51.2-96.4608a46.9504 46.9504 0 0 0-62.1056-20.224l-98.1504 47.9744a46.8992 46.8992 0 0 1-41.1648 0zM512 32a352 352 0 1 0 0 704 352 352 0 0 0 0-704z m0 46.9504a305.0496 305.0496 0 1 1 0 610.0992 305.0496 305.0496 0 0 1 0-610.0992zM344.832 522.1376l65.9456-83.968a9.3696 9.3696 0 0 1 14.7968 0l79.0528 100.7104a9.3696 9.3696 0 0 0 14.7968 0l79.0016-100.6592a9.3696 9.3696 0 0 1 14.7456 0l66.0992 83.968a9.3696 9.3696 0 0 0 16.6912-6.912l-27.4432-235.776H355.584l-27.4944 235.7248a9.3696 9.3696 0 0 0 16.7424 6.912zM370.4832 249.6h283.0336c8.2432 0 14.8992-6.656 14.8992-14.9504v-17.1008c0-8.192-6.656-14.8992-14.8992-14.8992H370.4832a14.9504 14.9504 0 0 0-14.8992 14.8992v17.1008c0 8.2944 6.656 14.9504 14.8992 14.9504z"  horiz-adv-x="1024" />

    
    <glyph glyph-name="shezhi" unicode="&#58889;" d="M881 384c0 52.4 32.9 96.8 79 114.5-11 43.2-28 83.9-50.2 121.3C864.6 599.7 810 607.9 773 645c-37 37-45.2 91.7-25.1 136.8C710.4 804 669.7 821 626.5 832c-17.8-46.1-62.2-79-114.5-79-52.4 0-96.8 32.9-114.5 79-43.2-11-83.9-28-121.3-50.2 20.1-45.2 11.9-99.8-25.1-136.8-37-37-91.7-45.2-136.8-25.2C92 582.4 75 541.7 64 498.5c46.1-17.8 79-62.2 79-114.5 0-52.4-32.9-96.8-79-114.5 11-43.2 28-83.9 50.2-121.3C159.4 168.3 214 160.1 251 123c37-37 45.2-91.7 25.1-136.8C313.6-36 354.3-53 397.5-64c17.8 46.1 62.2 79 114.5 79 52.4 0 96.8-32.9 114.5-79 43.2 11 83.9 28 121.3 50.2-20.1 45.2-11.9 99.8 25.1 136.8 37 37 91.7 45.2 136.8 25.2C932 185.6 949 226.3 960 269.5c-46.1 17.7-79 62.1-79 114.5zM512 261c-67.9 0-123 55.1-123 123s55.1 123 123 123 123-55.1 123-123-55.1-123-123-123z"  horiz-adv-x="1024" />

    
    <glyph glyph-name="wubianxing" unicode="&#58956;" d="M724.676923 41.353846H259.938462L114.215385 486.4l378.092307 275.692308 378.092308-275.692308-145.723077-445.046154z m-437.169231 39.384616h409.6l126.03077 389.907692-330.83077 240.246154-330.830769-240.246154 126.030769-389.907692z"  horiz-adv-x="1024" />

    
    <glyph glyph-name="wen" unicode="&#58960;" d="M0 896m64 0l896 0q64 0 64-64l0-896q0-64-64-64l-896 0q-64 0-64 64l0 896q0 64 64 64ZM385.92 551.04l40.96 21.12c-23.04 42.24-49.92 80.64-79.36 115.84l-42.88-18.56c29.44-34.56 56.96-73.6 81.28-118.4z m312.32-451.2c48.64 0 73.6 24.32 73.6 71.68V645.76H476.8v-44.8h248.32v-417.28c0-28.16-12.16-42.24-36.48-42.24l-70.4 1.28 11.52-42.88h68.48z m-399.36-4.48V576.64H252.16v-481.28h46.72z m327.04 148.48v240.64h-230.4v-240.64h230.4zM579.2 288h-136.96v152.32h136.96V288z"  horiz-adv-x="1024" />

    
    <glyph glyph-name="dianpu" unicode="&#59050;" d="M800 384c-17.92 0-32-14.08-32-32v-320c0-17.92-14.08-32-32-32H640v224c0 17.92-14.08 32-32 32h-256c-17.92 0-32-14.08-32-32V0H224c-17.92 0-32 14.08-32 32v320c0 17.92-14.08 32-32 32s-32-14.08-32-32v-320c0-53.12 42.88-96 96-96h512c53.12 0 96 42.88 96 96v320c0 17.92-14.08 32-32 32zM576 0H384v192h192v-192z m317.44 588.16l-64 160A31.296 31.296 0 0 1 800 768h-640c-12.8 0-24.96-7.68-29.44-19.84l-64-160C64.64 584.32 64 579.84 64 576c0-70.4 57.6-128 128-128 38.4 0 72.32 16.64 96 43.52 23.68-26.88 57.6-43.52 96-43.52s72.32 16.64 96 43.52c23.68-26.88 57.6-43.52 96-43.52s72.32 16.64 96 43.52c23.68-26.88 57.6-43.52 96-43.52 70.4 0 128 57.6 128 128 0 3.84-0.64 8.32-2.56 12.16zM768 512c-35.2 0-64 28.8-64 64 0 17.92-14.08 32-32 32s-32-14.08-32-32c0-35.2-28.8-64-64-64s-64 28.8-64 64c0 17.92-14.08 32-32 32S448 593.92 448 576c0-35.2-28.8-64-64-64s-64 28.8-64 64c0 17.92-14.08 32-32 32S256 593.92 256 576c0-35.2-28.8-64-64-64-33.28 0-60.8 25.6-64 58.24L181.76 704h596.48L832 570.24c-3.2-32.64-30.72-58.24-64-58.24z"  horiz-adv-x="1024" />

    
    <glyph glyph-name="kefu" unicode="&#59020;" d="M378.187 0.934c-30.78 10.752-61.018 19.305-89.6 31.653C181.76 78.878 102.671 153.811 59.362 263.168c-61.23 154.624-22.317 326.385 98.876 441.736 75.053 71.439 164.202 114.778 266.12 131.041 137.698 21.986 266.15-3.132 382.223-81.739 85.654-57.976 146.793-135.8 173.748-236.634 36.111-135.228 5-255.94-86.95-360.508-63.307-72.012-144.142-116.827-234.857-145.198a108.333 108.333 0 0 1-27.828-13.221c-32.256-21.685-63.91-44.213-95.955-66.169-24.968-17.137-50.086-34.183-78.487-45.387-13.161-5.18-26.774-8.674-40.96-6.716-25.72 3.523-45.176 24.064-44.996 50.537 0.181 20.751 4.217 41.562 6.566 62.314 0.392 3.011 1.054 6.053 1.325 7.71zM499.652 796.22c-15.812-1.777-45.116-3.463-73.819-8.553C332.83 771.223 251 731.497 184.772 663.492 96.136 572.536 61.32 463.962 86.889 338.703c22.137-108.544 85.324-187.934 180.526-242.658 43.73-25.118 90.985-40.78 140.438-50.055 15.09-2.862 22.347-12.228 21.263-27.407a124.145 124.145 0 0 0-1.325-11.596c-3.223-19.636-7.349-39.183-9.668-58.94-2.62-22.167 1.115-25.299 21.293-15.842a449.656 449.656 0 0 1 56.652 31.985c36.472 24.185 71.83 49.995 108.273 74.24a153.118 153.118 0 0 0 38.219 18.372c85.745 26.925 161.973 69.09 220.732 138.36 72.222 85.053 98.997 182.875 75.475 292.563-17.528 81.77-61.68 148.089-125.26 201.397-86.798 72.644-188.174 105.17-313.855 107.098zM509.47 193.054c-79.39 1.988-143.36 39.424-192.21 104.87a284.973 284.973 0 0 0-16.867 26.052c-7.499 12.83-4.246 27.075 7.259 34.032 11.956 7.199 26.202 3.283 33.882-9.848 19.577-33.46 44.875-61.41 78.426-81.288 77.523-45.869 172.334-29.756 234.316 40.298 10.902 12.318 20.088 26.293 29.214 40.086 8.885 13.373 21.986 18.071 34.244 10.933 12.137-7.017 15.24-21.504 7.047-35.207-38.28-64.362-91.829-108.605-166.22-124.989a197.18 197.18 0 0 0-22.979-3.644c-7.47-0.753-14.998-0.753-26.112-1.295zM391.92 529.408a47.375 47.375 0 0 0-48.76-46.773 47.375 47.375 0 0 0-46.742 48.76 47.405 47.405 0 0 0 48.76 46.773 47.375 47.375 0 0 0 46.743-48.76z m241.876 1.114a47.405 47.405 0 0 0 47.857 47.677 47.375 47.375 0 0 0 47.706-47.857 47.405 47.405 0 0 0-47.887-47.677 47.345 47.345 0 0 0-47.676 47.857z"  horiz-adv-x="1024" />

    
    <glyph glyph-name="weibiaoti1" unicode="&#58885;" d="M466.154809 226.072974 385.967079 385.943665 208.808961 410.519227 336.076438 536.186039 304.70413 712.266505 463.548255 630.062132 621.31716 714.309907 592.22057 537.839005 721.099659 413.82516 544.273594 386.965366Z"  horiz-adv-x="1024" />

    
    <glyph glyph-name="dagou" unicode="&#58884;" d="M510.986139-128C229.132673-128 0 101.13267299999995 0 385.013861S229.132673 896 510.986139 896s510.986139-229.132673 510.986138-513.013861-227.10495-510.986139-510.986138-510.986139z m0 973.306931C257.520792 845.306931 50.693069 638.479208 50.693069 385.013861S257.520792-77.30693099999996 510.986139-77.30693099999996 973.306931 129.52079200000003 973.306931 385.013861 766.479208 845.306931 510.986139 845.306931zM519.09703 145.742574c-6.083168 0-10.138614 2.027723-14.19406 4.055446l-237.243564 168.30099c-12.166337 8.110891-14.194059 24.332673-6.083168 34.471287 8.110891 12.166337 24.332673 14.194059 34.471287 6.083168L508.958416 206.574257l208.855445 401.489109c6.083168 12.166337 22.30495 16.221782 34.471288 10.138614 12.166337-6.083168 16.221782-22.30495 10.138613-34.471287l-223.049505-425.821782c-4.055446-6.083168-10.138614-12.166337-16.221782-12.166337h-4.055445z"  horiz-adv-x="1024" />

    
    <glyph glyph-name="xin" unicode="&#59055;" d="M547.598 156.372c-34.912-30.936-68.616-60.806-98.052-90.073-30.862 30.689-66.083 61.657-102.6 93.707-100.251 88.002-213.86 187.742-213.298 269.704 0.772 110.02 48.978 175.7 129.004 175.7 52.104 0 103.405-28.357 133.862-73.998l53.96-80.844 52.132 82.05c20.317 31.875 52.744 55.604 88.634 66.521l0 65.385c-55.992-11.796-109.007-45.932-142.062-97.952-43.604 65.34-116.393 102.167-186.527 102.167-98.112 0-191.159-71.986-192.302-238.581C69.202 264.99 340.854 107.764 449.608-27.489c103.554 129.738 377.685 294.2 378.394 457.739l-63.407 0C764.071 348.288 644.11 241.96 547.598 156.372L547.598 156.372zM547.598 156.372M828.044 667.008 828.044 793.321l-63.138 0 0-126.313L638.594 667.008l0-63.125 126.313 0L764.907 477.6l63.138 0L828.045 603.883l126.253 0 0 63.125L828.044 667.008zM828.044 667.008"  horiz-adv-x="1024" />

    
    <glyph glyph-name="renminbi" unicode="&#58910;" d="M512 831.418123c-247.101841 0-447.418123-200.316282-447.418123-447.418123s200.316282-447.418123 447.418123-447.418123 447.418123 200.316282 447.418123 447.418123S759.101841 831.418123 512 831.418123zM512-37.437401c-232.753041 0-421.437401 188.683337-421.437401 421.437401s188.683337 421.437401 421.437401 421.437401c232.753041 0 421.437401-188.683337 421.437401-421.437401S744.753041-37.437401 512-37.437401zM694.27744 338.73405c14.94948 0 28.14092-9.348925 28.14092-22.776749 0-11.403724-13.190417-21.431102-28.14092-21.431102l-157.308769 0 0-128.821971c0-11.406794-10.555403-24.792663-28.14399-24.792663-15.830547 0-29.024034 13.416568-29.024034 24.792663L479.800647 294.525176l-150.928455 0c-14.948457 0-27.290553 10.05603-27.290553 22.781866 0 12.078083 12.343119 21.427008 27.290553 21.427008l150.928455 0 0 67.075675-150.928455 0c-14.948457 0-27.290553 8.705266-27.290553 22.777773 0 11.401678 12.343119 20.786419 27.290553 20.786419l129.792065 0-104.622826 140.741441c-4.931313 11.05887-1.471514 28.000728 11.288091 34.169217 13.703093 6.623861 28.41312 0.62217 35.450397-8.731872l108.955504-146.742109 110.933555 136.095631c7.03523 10.05603 22.514783 23.778566 41.047882 12.67774 19.48068-11.667737 7.214309-34.83846 7.214309-34.83846L559.863101 449.402569l128.059608 0c14.954597 0 28.145014-9.380648 28.145014-22.13309 0-12.753465-13.190417-21.431102-28.145014-21.431102l-150.927431 0 0-67.071581 157.282163 0L694.27744 338.73405 694.27744 338.73405z"  horiz-adv-x="1024" />

    
    <glyph glyph-name="guolvqi" unicode="&#58927;" d="M70.36750609 800.1593923l346.25646235-345.36786577-0.5923977-356.91962118 191.93685852-130.32749653v485.76612344l346.2564624 346.84886004H70.36750609z m463.55120925-316.34037792v-376.46874564l-43.54123178 29.61988557 0.29619885 243.77165828v104.55819608l-74.04971397 73.75351507-167.35235349 167.05615466H775.61698162l-167.64855236-167.94475123-74.04971392-74.34591279z"  horiz-adv-x="1024" />

    
    <glyph glyph-name="arrdown" unicode="&#58935;" d="M234.88884163 518.52193155l279.65492248-279.65492248 278.8075161 278.8075161z"  horiz-adv-x="1024" />

    
    <glyph glyph-name="jiajiananniu01" unicode="&#58959;" d="M248.888889 398.222222l526.222222 0 0-28.444444-526.222222 0 0 28.444444Z"  horiz-adv-x="1024" />

    
    <glyph glyph-name="jia1" unicode="&#58916;" d="M483.84 357.376H252.928V410.624h230.912V660.48h57.344v-249.856h229.888v-52.736h-229.888V107.52H483.84v249.856z"  horiz-adv-x="1024" />

    
    <glyph glyph-name="notice" unicode="&#59092;" d="M724.007391 812C439.668067 812 212.093398 584.425332 212.093398 300.086007s227.574668-511.913993 511.913993-511.913993S1236.093398 15.574668 1236.093398 300.086007C1236.093398 584.425332 1008.51873 812 724.007391 812zM724.695448-148.870821c-247.184277 0-447.924744 200.740467-447.924744 447.924744S477.511171 747.15068 724.695448 747.15068s447.924744-200.740467 447.924744-447.924744C1172.620192 44.129011 971.879725-148.870821 724.695448-148.870821zM724.007391 214.767008c28.382328 0 49.712078 21.32975 49.712078 49.712078L773.719469 563.095582c0 28.382328-21.32975 49.712078-49.712078 49.712078S674.295313 591.47791 674.295313 563.095582l0-298.616496C674.295313 236.096758 695.625063 214.767008 724.007391 214.767008zM724.007391 157.830338 724.007391 157.830338c-28.382328 0-49.712078-21.32975-49.712078-49.712078l0 0c0-28.382328 21.32975-49.712078 49.712078-49.712078l0 0c28.382328 0 49.712078 21.32975 49.712078 49.712078l0 0C773.891483 136.500588 752.561734 157.830338 724.007391 157.830338z"  horiz-adv-x="1449" />

    
    <glyph glyph-name="dingweiweizhi" unicode="&#59155;" d="M498.957 895.13C309.03 895.13 155.02 740.287 155.02 549.14c0-95.478 38.551-181.96 100.746-244.605l243.19-244.667L742.21 304.535a345.927 345.927 0 0 1 100.682 244.54C842.893 740.222 688.947 895.067 498.957 895.067z m0-499.68a153.302 153.302 0 0 0-152.918 153.69v0.127a153.238 153.238 0 0 0 152.854 153.689h0.064a153.302 153.302 0 0 0 152.917-153.689v-0.128A153.238 153.238 0 0 0 499.15 395.515h-0.192zM346.039-52.571a152.917 64.25 0 1 1 305.835 0 152.917 64.25 0 1 1-305.835 0z"  horiz-adv-x="1024" />

    
    <glyph glyph-name="deng" unicode="&#59151;" d="M517.897597 358.969753c27.530304 0 49.850706 22.538377 49.850706 50.334753 0 27.80661-22.320402 50.34601-49.850706 50.34601s-49.842519-22.5394-49.842519-50.34601C468.055077 381.50813 490.367293 358.969753 517.897597 358.969753zM675.722519 358.969753c27.529281 0 49.850706 22.538377 49.850706 50.334753 0 27.80661-22.321426 50.34601-49.850706 50.34601-27.521094 0-49.842519-22.5394-49.842519-50.34601C625.878976 381.50813 648.201425 358.969753 675.722519 358.969753zM360.072674 358.969753c27.530304 0 49.841496 22.538377 49.841496 50.334753 0 27.80661-22.311192 50.34601-49.841496 50.34601-27.530304 0-49.850706-22.5394-49.850706-50.34601C310.221968 381.50813 332.54237 358.969753 360.072674 358.969753z"  horiz-adv-x="1024" />

    
    <glyph glyph-name="QQ" unicode="&#58940;" d="M110.397684 81.591515a75.527326 75.527326 0 0 1 69.770438 13.296885l1.706688-2.547296a109.100688 109.100688 0 0 1-59.326524-91.702656c0-74.381043 87.499618-128.358245 208.063137-128.358245a278.725128 278.725128 0 0 1 161.26931 44.806936 312.425854 312.425854 0 0 1 35.916874 0 278.674182 278.674182 0 0 1 161.243836-44.781463c120.538047 0 208.08861 53.977202 208.08861 128.358245a109.024269 109.024269 0 0 1-59.071794 91.702656l1.732161 2.547296a75.349016 75.349016 0 0 1 69.566654-13.169521c67.961857 23.103975 71.680909 141.680603 40.756736 241.509134a329.110643 329.110643 0 0 1-71.910166 122.091897c0.305676 3.820944 0.458513 7.641888 0.458513 11.488305a171.25471 171.25471 0 0 1-22.925664 84.672119v0.382095a345.719013 345.719013 0 1 1-691.387079 8.406076v-9.628779a171.305656 171.305656 0 0 1-22.314313-83.780565 93.052723 93.052723 0 0 1 0.407567-10.596751 329.569156 329.569156 0 0 1-72.750774-123.05987c-31.026065-99.879476-27.307013-218.430632 40.578425-241.483661z m8.049456 226.378195a282.749856 282.749856 0 0 0 68.776992 111.316835 25.47296 25.47296 0 0 1 6.979591 21.830327 101.535218 101.535218 0 0 0-1.273648 15.513033 122.677775 122.677775 0 0 0 18.900936 64.191859 25.676744 25.676744 0 0 1 3.668106 15.003573 75.068813 75.068813 0 0 0-0.229256 5.858781 294.74762 294.74762 0 0 0 589.469766 5.476686v-5.476686a41.469979 41.469979 0 0 0-0.203783-5.094592 25.651271 25.651271 0 0 1 3.719052-15.003574 122.270208 122.270208 0 0 0 19.257558-64.80321 97.969004 97.969004 0 0 0-1.37554-16.124383 25.47296 25.47296 0 0 1 6.903172-21.983165 282.189451 282.189451 0 0 0 68.216587-110.578119c27.28154-87.805293 17.831072-169.267819-8.304185-178.106936-13.500669-4.55966-29.472215 9.832563-39.406669 21.702962a25.141812 25.141812 0 0 1-22.186948 8.991954 25.47296 25.47296 0 0 1-19.817963-13.398776 328.754022 328.754022 0 0 0-31.611944-48.525989 25.47296 25.47296 0 0 1 10.189184-39.253832c35.662144-14.825263 56.040512-36.298968 56.040512-58.944429 0-42.692681-70.48368-77.386852-157.117217-77.386852a220.009955 220.009955 0 0 0-136.4077 39.177412 25.47296 25.47296 0 0 1-16.659316 6.189929h-1.884999a295.18066 295.18066 0 0 0-48.398624 0 24.810663 24.810663 0 0 1-18.620734-6.11351 219.959009 219.959009 0 0 0-136.458647-39.202885c-86.608064 0-157.091744 34.719644-157.091744 77.386852 0 22.72188 20.378368 44.246531 56.040512 59.046321a25.47296 25.47296 0 0 1 13.806344 33.267686 25.090866 25.090866 0 0 1-3.489795 5.986146 331.657939 331.657939 0 0 0-31.560998 48.398623 25.47296 25.47296 0 0 1-42.157748 4.432296c-10.010873-11.972291-25.829581-26.670189-39.58498-21.881273-26.084311 8.813644-35.662144 90.250697-8.355131 178.081463z"  horiz-adv-x="1024" />

    
    <glyph glyph-name="weixin" unicode="&#58883;" d="M346.6332 71.41909999999996L98.4573-12.365099999999984l122.7138 142.6413C106.5721 204.72469999999998 32.5073 321.51250000000005 32.5073 452.3888c0 223.9971 216.8099 406.6713 482.6506 406.6713 265.8397 0 482.6486-182.6741 482.6486-406.6713 0-223.9821-216.8089-406.6563-482.6486-406.6563C455.9256 45.73249999999996 399.1457 54.84130000000005 346.6332 71.41909999999996L346.6332 71.41909999999996zM297.9972 520.5065999999999c-32.7312 0-59.2692-26.537-59.2692-59.2668 0-32.7308 26.5381-59.2678 59.2692-59.2678 32.7321 0 59.2702 26.537 59.2702 59.2678C357.2674 493.9696 330.7293 520.5065999999999 297.9972 520.5065999999999L297.9972 520.5065999999999zM732.3165 520.5065999999999c-32.7312 0-59.2613-26.537-59.2613-59.2668 0-32.7308 26.5301-59.2678 59.2613-59.2678 32.7391 0 59.2692 26.537 59.2692 59.2678C791.5848 493.9696 765.0547 520.5065999999999 732.3165 520.5065999999999L732.3165 520.5065999999999zM515.1578 520.5065999999999c-32.7331 0-59.2632-26.537-59.2632-59.2668 0-32.7308 26.5301-59.2678 59.2632-59.2678 32.7312 0 59.2692 26.537 59.2692 59.2678C574.4261 493.9696 547.889 520.5065999999999 515.1578 520.5065999999999z"  horiz-adv-x="1000" />

    
    <glyph glyph-name="xiabiao" unicode="&#58955;" d="M512 147.2l-407.466667 405.333333 46.933334 46.933334 360.533333-362.666667 360.533333 362.666667 46.933334-46.933334z"  horiz-adv-x="1024" />

    
    <glyph glyph-name="arrow-left-copy" unicode="&#58882;" d="M694.475 63.547000000000025l-56.285-58.26-393.996 392.021 393.996 392.021 56.285-58.26-331.786-333.761z"  horiz-adv-x="1024" />

    
    <glyph glyph-name="arrow-right" unicode="&#58881;" d="M329.525 704.453l56.285 58.261 393.996-392.021-393.996-392.021-56.285 58.261 331.786 333.761z"  horiz-adv-x="1024" />

    
    <glyph glyph-name="paihangbang" unicode="&#59143;" d="M262.4-106.1H21.6v489h240.8v-489z m367.9 0.6H392.4V874.6h237.9v-980.1z m372.3-0.9h-240V565.9h240v-672.3z"  horiz-adv-x="1024" />

    
    <glyph glyph-name="gouwuche1" unicode="&#58880;" d="M357.44 129.60000000000002q18.24 0 34.56-6.72t28.8-18.72 19.2-28.32 6.72-34.56-6.72-34.56-19.2-28.32-28.8-19.2-34.56-7.2q-19.2 0-35.04 7.2t-28.32 19.2-19.2 28.32-6.72 34.56 6.72 34.56 19.2 28.32 28.32 18.72 35.04 6.72zM756.8 127.67999999999995q18.24 0 35.04-6.72t28.8-18.72 19.2-28.32 7.2-34.56-7.2-34.56-19.2-28.32-28.8-19.2-35.04-7.2-34.56 7.2-28.32 19.2-19.2 28.32-7.2 34.56 7.2 34.56 19.2 28.32 28.32 18.72 34.56 6.72zM918.08 672.96q26.88 0 41.76-7.2t21.12-17.76 5.76-22.56-3.36-20.64-12-35.52-20.64-59.04-22.56-63.84-16.8-49.92q-12.48-38.4-31.68-53.28t-47.04-14.88l-32.64 0-62.4 0-81.6 0-89.28 0-238.08 0 14.4-86.4 483.84 0q46.08 0 46.08-39.36 0-19.2-9.12-33.12t-36-13.92l-46.08 0-89.28 0-110.4 0-112.32 0-92.16 0-52.8 0q-19.2 0-32.16 8.64t-21.6 22.56-13.92 30.24-8.16 30.72q-0.96 5.76-5.28 27.84t-10.56 55.2-13.92 73.92-15.36 82.08q-18.24 96.96-41.28 216l-72 0q-14.4 0-24 7.2t-15.84 17.28-8.64 21.6-2.4 21.12q0 19.2 12.96 31.68t35.04 12.48l21.12 0 19.2 0 24 0 32.64 0q19.2 0 30.72-5.76t18.24-14.4 9.6-18.24 4.8-16.32q1.92-7.68 3.84-21.6t3.84-28.32q2.88-17.28 5.76-36.48l656.64 0z"  horiz-adv-x="1024" />

    
    <glyph glyph-name="denglu" unicode="&#58933;" d="M880.174545-91.554909H143.825455c-45.149091 0-81.826909 34.676364-81.82691 77.312V94.487273c0 122.973091 110.126545 223.045818 245.434182 223.045818h409.134546c135.307636 0 245.434182-100.072727 245.434182-223.045818v-108.730182c0-42.635636-36.724364-77.312-81.82691-77.312zM143.825455-9.355636l736.34909-0.372364V94.487273c0 77.870545-73.402182 141.218909-163.607272 141.218909h-409.134546c-90.205091 0-163.607273-63.348364-163.607272-141.218909v-103.842909z m367.848727 357.562181A256 256 0 0 0 256 603.880727 256 256 0 0 0 511.674182 859.554909a256 256 0 0 0 255.674182-255.674182 256 256 0 0 0-255.674182-255.674182z m0 429.521455a174.08 174.08 0 0 1-173.847273-173.847273 174.08 174.08 0 0 1 173.847273-173.847272 174.08 174.08 0 0 1 173.847273 173.847272A174.08 174.08 0 0 1 511.674182 777.774545z"  horiz-adv-x="1024" />

    
    <glyph glyph-name="2" unicode="&#58915;" d="M85.333333 810.666667m85.333334 0l213.333333 0q85.333333 0 85.333333-85.333334l0-213.333333q0-85.333333-85.333333-85.333333l-213.333333 0q-85.333333 0-85.333334 85.333333l0 213.333333q0 85.333333 85.333334 85.333334ZM85.333333 341.33333300000004m85.333334 0l213.333333 0q85.333333 0 85.333333-85.333333l0-213.333333q0-85.333333-85.333333-85.333334l-213.333333 0q-85.333333 0-85.333334 85.333334l0 213.333333q0 85.333333 85.333334 85.333333ZM554.666667 810.666667m85.333333 0l213.333333 0q85.333333 0 85.333334-85.333334l0-213.333333q0-85.333333-85.333334-85.333333l-213.333333 0q-85.333333 0-85.333333 85.333333l0 213.333333q0 85.333333 85.333333 85.333334ZM512 170.66666699999996c0 117.76 95.658667 213.333333 213.333333 213.333333 117.76 0 213.333333-95.658667 213.333334-213.333333 0-117.76-95.658667-213.333333-213.333334-213.333334-117.76 0-213.333333 95.658667-213.333333 213.333334z m85.333333 0c0-70.570667 57.386667-128 128-128 70.570667 0 128 57.386667 128 128 0 70.570667-57.386667 128-128 128-70.570667 0-128-57.386667-128-128zM823.168 12.501333000000045l85.333333-85.333333a42.666667 42.666667 0 0 1 60.330667 60.330667l-85.333333 85.333333a42.666667 42.666667 0 0 1-60.330667-60.330667z"  horiz-adv-x="1024" />

    
    <glyph glyph-name="jingxi" unicode="&#58899;" d="M620.087216 672.912522c-112.788231-67.43259-210.324656 0-210.324655 0-10.83738 6.822733-36.526789-5.217597-20.871591-30.504817 99.543748-77.4668 232.4004-21.674761 251.267075-0.402188 18.864267 21.273778-7.22492 39.336079-20.070829 30.907005zM576.107922 97.863051h81.302029v-9.795788h-81.302029zM572.535199 61.604788h0.385329c-0.10717 0.116803-0.236014 0.089107-0.385329 0zM656.061299 18.422644l-84.066765 0.195073v-8.596451l84.066765-0.195073zM356.43422 94.342107l0.099944-17.885291h100.847847l-0.099945 17.885291zM19.266454 879.717438v-991.853921h991.855126V879.717438H19.266454z m315.132963-893.409565c-15.421592 11.284121-22.854831 17.507186-22.318983 18.704114 18.592128 11.866932 25.531664 20.430871 34.573652 39.440841 16.999033-10.104051 25.505173-15.44688 25.505173-16.032099-14.347488-19.011174-22.353904-28.44692-37.759842-42.112856z m88.511295 7.386277c0-8.302638-2.928501-13.944096-8.767441-16.921968-4.782897-2.96583-16.21513-4.745569-34.273818-5.344033-1.594299 8.905918-4.259091 18.118896-7.970291 27.608829 17.000238-1.19452 24.710432 1.782147 23.114928 8.908327v45.431503h-63.266219v64.121168h149.917097v-64.121168H422.910712v-59.682658z m52.605849-9.796992c-10.100439 9.507995-24.447926 21.669944-43.040055 36.517155 7.435647 6.52892 13.550338 13.361286 18.333235 20.487466 17.000238-11.886198 31.882369-23.464133 44.634354-34.737417a371.829321 371.829321 0 0 1-19.927534-22.267204z m23.608631 145.365397h-183.031315v24.048147h77.241623c-3.18619 8.308658-5.318746 13.657508-6.375992 16.034507l25.967568 8.358028c1.605136-3.210273 6.120712-13.647875 10.696494-24.393739h75.501622v-24.046943z m184.034375-149.140418h-27.896622v10.68927l-83.270819 0.195072v-9.800604h-25.503969v56.113548l136.67141-0.195073v-57.002213z m25.485906 62.778537H521.001047v18.704114h49.13307a5.154981 5.154981 0 0 0-0.400983 0.632181c-0.823641 1.372735-5.446386 7.955841-7.548837 11.207056h-12.378697v41.34581h135.498564v-41.34581h-15.551641c-2.502231-2.974259-7.858305-8.641005-11.552648-11.839237h50.445598v-18.704114z m-6.601169 122.103562v-16.700404h-72.532179v-9.03115h62.172848v-16.924376H541.834104v16.924376h61.37329v9.03115H529.080916V165.006644h74.127682v12.467804h7.970292c14.871294 0 21.781931-1.196928 20.72348-3.56309 0-1.196928-0.532236-2.380611-1.593095-3.56309a18.541554 18.541554 0 0 1-0.79715-5.344032h72.532179z m91.441 176.766105c-35.522525-57.197286-134.86518-100.546808-134.865179-100.546808-31.307988-10.235304-46.961982 19.264046-55.993133 40.938807s-54.186902 85.494891-63.820129 94.526041c-9.633227 9.033559-26.491375 8.431482-42.747446 3.614868-0.397371-0.118007-0.807987-0.245647-1.219807-0.375696-5.199534-4.791326-9.324964-8.632576-12.02588-11.063761-18.062301-16.256071-62.615976-104.159268-69.840896-113.190419s-18.062301-19.266454-39.737062-13.847764c-47.564059 9.633227-122.221569 77.667894-130.650643 86.096968s-10.83738 21.072684-10.235304 27.695528-11.439457 15.051917 79.474124 74.65751c169.183551 108.373805 316.090264 43.349522 316.090264 43.349522-0.293813-0.061412-0.596056-0.138478-0.892277-0.205911 2.081981-0.765842 4.006218-1.5076 5.708891-2.202396 16.256071-6.622844 89.709427-45.757829 99.944731-51.778596s81.88243-46.961982 60.809746-77.667893z m47.766357 164.165844c-26.492579-23.279897-59.405703-31.307988-105.163532-16.858148s-71.447237 35.322635-158.146281 48.969306-142.892066-3.211477-157.341907-5.619784-126.837089-43.349522-148.51185-51.377613-81.07926 0-105.162328 52.98275-24.083068 167.779508-6.42175 197.481155c17.658909 29.702852 47.361761 73.855544 117.202658 62.615976 0 0 138.879827-59.404499 188.651099-73.854339s89.909317-2.408307 100.345714 0 161.356554 65.827453 183.031315 73.052373 51.377613-1.605136 54.587886-2.408306c3.211477-0.80317 72.249203-19.266454 77.870191-129.2466 2.408307-81.07926-14.449841-132.456873-40.941215-155.73677zM603.207394 61.604788h27.100676c2.651546 5.344033 4.507146 8.276146 5.581251 11.839237h-38.259565l5.577638-11.839237z"  horiz-adv-x="1024" />

    
    <glyph glyph-name="zhifu-jingdong" unicode="&#59042;" d="M596.2 364.2s1.2-21.2 85.2-8.8c0 0-10.1-230.6 6.3-305.9 0 0-6.3-21.3-26.3 52.7s-25.1 91.5-33.8 95.3c-8.7 3.8-48.9-22.6-68.9-65.2-20-42.6-31.4-94-31.4-94s-13.3-10.1-13.6 6.3c-0.2 16.3 11.1 101.5 11.1 101.5s-23.1-59.7-27.1-90.9c-4-31.3-12.1-3.2-10.5 6.4 1.6 9.6 10.9 52.5-0.2 78.1 0 0-10.2 4.7-76.9-95.8 0 0-5.6-15-12.1-8.7-6.4 6.3 0.8 15.9 7.2 32s34.6 82 43.4 90.1c0 0-26.5-4.8-41 2.4-14.5 7.2-32.2 20.9-20.9 74 4.5 21.3 5 0.3 3.2-15.3-3.7-33 9.6-51.8 34.8-46.3 26.5 5.7 40 26.9 40 26.9l131.5 165.2z m312.1 329.7s-28-28.4-86.5-27.6c-27.1 0.3-44.1 1.9-47.6 12.5-5.4 16.7 41 41.3 99.1 38 0 0-51.5 27.1-213.2 14.6-161.7-12.6-382.3-111.5-382.3-111.5s1.3-8.8-20 6.3c-21.3 15-47.6 26.3-55.2 25.1-7.6-1.2-21.3 0-23.8-32.6l-66.9-163s44.3-32.6 96.9-12.5c52.6 20 52.7 87.7 40.1 110.3 0 0 7.6 1.3 15.1-11.3 7.5-12.5 90.1-60.1 119-72.7 28.9-12.5 185.5-67.5 223.1-77 37.6-9.5 81.4-1.9 99 14.4 17.6 16.3 109 116.6 131.7 155.4 0 0-282.4-46.4-362.5-12.5 0 0-12.3-6.3-18.6-2.5-6.3 3.8 1.3 26.3 7.6 23.8s11.1-8.8 11.1-8.8 91.7-33.9 371.2 16.3c0 0 82.8 80.2 62.7 115.3z m-441.5-59.1c-15.6-1.8-15.8 24.3-9.3 40.4 4.5 11.1 28.3 15.4 27.8-3-0.7-23.4-3.9-35.7-18.5-37.4z m0 0"  horiz-adv-x="1024" />

    
    <glyph glyph-name="anjianfengexian" unicode="&#59008;" d="M486.4 793.6l51.2 0 0-819.2-51.2 0 0 819.2Z"  horiz-adv-x="1024" />

    
    <glyph glyph-name="sousuo" unicode="&#58919;" d="M873.6 53.1L716 210.6c28 29.2 50.2 62.9 66 100.1 17.3 40.8 26 84.1 26 128.7s-8.7 87.9-26 128.7c-16.7 39.4-40.5 74.7-70.9 105.1s-65.7 54.2-105.1 70.9c-40.8 17.3-84.1 26-128.7 26s-87.9-8.7-128.7-26c-39.4-16.7-74.7-40.5-105.1-70.9s-54.2-65.7-70.9-105.1c-17.3-40.8-26-84.1-26-128.7s8.7-87.9 26-128.7c16.7-39.4 40.5-74.7 70.9-105.1s65.7-54.2 105.1-70.9c40.8-17.3 84.1-26 128.7-26s87.9 8.7 128.7 26c21.7 9.2 42.2 20.6 61.4 34.1l161-161c12.4-12.4 32.8-12.4 45.2 0 12.4 12.5 12.4 32.8 0 45.3zM477.3 172.8c-71.2 0-138.2 27.7-188.6 78.1-50.4 50.4-78.1 117.3-78.1 188.6s27.7 138.2 78.1 188.6c50.4 50.4 117.3 78.1 188.6 78.1 71.2 0 138.2-27.7 188.6-78.1 50.4-50.4 78.1-117.3 78.1-188.6s-27.7-138.2-78.1-188.6c-50.4-50.4-117.4-78.1-188.6-78.1z"  horiz-adv-x="1024" />

    
    <glyph glyph-name="jingdong" unicode="&#58898;" d="M430.08 896H288v-617.92a477.44 477.44 0 0 0-15.04-147.52A115.2 115.2 0 0 0 224 60.48a243.2 243.2 0 0 0-96-45.44L0 0v-128h11.84l183.04 24.32a416 416 0 0 1 135.68 67.2c66.56 58.56 101.44 147.52 101.44 265.92zM1344 384a609.6 609.6 0 0 1-38.4 224 416 416 0 0 1-107.52 160c-96 84.16-236.16 128-419.2 128h-209.92v-1024h208.32c183.04 0 322.24 44.48 419.2 130.56a374.08 374.08 0 0 1 109.12 160A596.16 596.16 0 0 1 1344 384z m-239.68 291.52a261.12 261.12 0 0 0 73.6-119.36 500.48 500.48 0 0 0 27.84-172.16 470.08 470.08 0 0 0-27.84-168 249.28 249.28 0 0 0-73.6-120c-69.12-65.92-173.76-96-310.4-96H704V771.84h90.24c136.64 0 241.28-32 310.4-97.92z"  horiz-adv-x="1344" />

    
    <glyph glyph-name="caidan1" unicode="&#58976;" d="M122.7 666.6h781.1c20.7 0 37.5 16.8 37.5 37.5s-16.8 37.5-37.5 37.5H122.7c-20.7 0-37.5-16.8-37.5-37.5s16.8-37.5 37.5-37.5zM903.8 422.9H122.7c-20.7 0-37.5-16.8-37.5-37.5s16.8-37.5 37.5-37.5h781.1c20.7 0 37.5 16.8 37.5 37.5-0.1 20.7-16.9 37.5-37.5 37.5zM903.8 105H122.7c-20.7 0-37.5-16.8-37.5-37.5S102 30 122.7 30h781.1c20.7 0 37.5 16.8 37.5 37.5S924.4 105 903.8 105z"  horiz-adv-x="1024" />

    
    <glyph glyph-name="caidan" unicode="&#58886;" d="M128 682.666667h768c12.8 0 21.333333 8.533333 21.333333 21.333333s-8.533333 21.333333-21.333333 21.333333H128c-12.8 0-21.333333-8.533333-21.333333-21.333333s8.533333-21.333333 21.333333-21.333333zM896 405.333333H128c-12.8 0-21.333333-8.533333-21.333333-21.333333s8.533333-21.333333 21.333333-21.333333h768c12.8 0 21.333333 8.533333 21.333333 21.333333s-8.533333 21.333333-21.333333 21.333333zM896 85.333333H128c-12.8 0-21.333333-8.533333-21.333333-21.333333s8.533333-21.333333 21.333333-21.333333h768c12.8 0 21.333333 8.533333 21.333333 21.333333s-8.533333 21.333333-21.333333 21.333333z"  horiz-adv-x="1024" />

    


  </font>
</defs>
</svg>
